# xmcd
#
# Track frame offsets:
#	150
#	9477
#	22920
#	34780
#	45072
#	55851
#	77853
#	87564
#	102684
#	115901
#	122328
#	134928
#	143720
#
# Disc length: 2086 seconds
#
# Revision: 0
# Processed by: cddbd v1.5.1PL0 Copyright (c) Steve Scherf et al.
# Submitted via: dBpowerAMP V4.0
#
DISCID=a808240d
DTITLE=Pelle - Liljor
DYEAR=2001
DGENRE=Country
TTITLE0=Hit rhe road Jack
TTITLE1=I cross my heart
TTITLE2=Guess it doesnt matter
TTITLE3=Take my heart and bring a little life
TTITLE4=Tonight Im looking for a ...
TTITLE5=I go to bed with your picture
TTITLE6=I aint got no money
TTITLE7=Thank you dad
TTITLE8=Thanks to the keeper of the stars
TTITLE9=Bäbä vita lamm
TTITLE10=Upp å hoppa alla jävlar
TTITLE11=Personliga Persson
TTITLE12=Sommaren e kort
EXTD=
EXTT0=
EXTT1=
EXTT2=
EXTT3=
EXTT4=
EXTT5=
EXTT6=
EXTT7=
EXTT8=
EXTT9=
EXTT10=
EXTT11=
EXTT12=
PLAYORDER=
